<svg width="44" height="44" viewBox="0 0 44 44" fill="none" xmlns="http://www.w3.org/2000/svg">
<rect x="0.5" y="0.5" width="43" height="43" rx="21.5" stroke="#858585"/>
<path d="M17.8 12H26.2C29.4 12 32 14.6 32 17.8V26.2C32 27.7383 31.3889 29.2135 30.3012 30.3012C29.2135 31.3889 27.7383 32 26.2 32H17.8C14.6 32 12 29.4 12 26.2V17.8C12 16.2617 12.6111 14.7865 13.6988 13.6988C14.7865 12.6111 16.2617 12 17.8 12ZM17.6 14C16.6452 14 15.7295 14.3793 15.0544 15.0544C14.3793 15.7295 14 16.6452 14 17.6V26.4C14 28.39 15.61 30 17.6 30H26.4C27.3548 30 28.2705 29.6207 28.9456 28.9456C29.6207 28.2705 30 27.3548 30 26.4V17.6C30 15.61 28.39 14 26.4 14H17.6ZM27.25 15.5C27.5815 15.5 27.8995 15.6317 28.1339 15.8661C28.3683 16.1005 28.5 16.4185 28.5 16.75C28.5 17.0815 28.3683 17.3995 28.1339 17.6339C27.8995 17.8683 27.5815 18 27.25 18C26.9185 18 26.6005 17.8683 26.3661 17.6339C26.1317 17.3995 26 17.0815 26 16.75C26 16.4185 26.1317 16.1005 26.3661 15.8661C26.6005 15.6317 26.9185 15.5 27.25 15.5ZM22 17C23.3261 17 24.5979 17.5268 25.5355 18.4645C26.4732 19.4021 27 20.6739 27 22C27 23.3261 26.4732 24.5979 25.5355 25.5355C24.5979 26.4732 23.3261 27 22 27C20.6739 27 19.4021 26.4732 18.4645 25.5355C17.5268 24.5979 17 23.3261 17 22C17 20.6739 17.5268 19.4021 18.4645 18.4645C19.4021 17.5268 20.6739 17 22 17ZM22 19C21.2044 19 20.4413 19.3161 19.8787 19.8787C19.3161 20.4413 19 21.2044 19 22C19 22.7956 19.3161 23.5587 19.8787 24.1213C20.4413 24.6839 21.2044 25 22 25C22.7956 25 23.5587 24.6839 24.1213 24.1213C24.6839 23.5587 25 22.7956 25 22C25 21.2044 24.6839 20.4413 24.1213 19.8787C23.5587 19.3161 22.7956 19 22 19Z" fill="black"/>
</svg>
