<svg width="44" height="44" viewBox="0 0 44 44" fill="none" xmlns="http://www.w3.org/2000/svg">
<rect x="0.5" y="0.5" width="43" height="43" rx="21.5" stroke="#858585"/>
<path d="M20.67 25.097C20.164 27.823 19.548 30.437 17.72 31.802C17.157 27.682 18.549 24.587 19.195 21.302C18.093 19.392 19.328 15.547 21.652 16.494C24.512 17.66 19.175 23.596 22.758 24.338C26.499 25.112 28.027 17.655 25.707 15.229C22.355 11.728 15.95 15.15 16.738 20.163C16.93 21.389 18.159 21.761 17.229 23.453C15.084 22.962 14.444 21.22 14.527 18.897C14.659 15.097 17.844 12.435 21.038 12.067C25.078 11.601 28.869 13.594 29.392 17.507C29.982 21.923 27.569 26.707 23.25 26.362C22.079 26.269 21.587 25.672 20.67 25.097Z" fill="black"/>
</svg>
